# File created by Blade
# Date/Time:  Wed Jan 21 15:55:51 2015
# Frame Rate: 120.000 fps
#------------------------------------------------------
:FULLY-SPECIFIED
:DEGREES
1417
root 19.224300 35.302545 -22.619956 -175.051139 -1.625516 -178.694418
Spine -15.845197 1.752368 -0.541248
Head 8.044237 -2.494637 0.831599
LeftShoulder -11.856547 -33.680628 23.370311
LeftArm 1.267074 -1.265009 -5.239123
LeftForeArm 12.918299 -0.000000 -2.744072
LeftHand -8.933851 -0.000000 -2.768721
LeftHandThumb1 -26.253704 0.000000 33.147579
RightShoulder -15.145623 -3.001780 -11.465997
RightArm 1.891129 39.724446 7.593808
RightForeArm -36.781589 -0.000000 4.422796
RightHand -7.823836 -0.000000 5.186735
RightHandThumb1 -24.326973 -0.000000 -32.862282
LeftUpLeg 5.934717 8.099719 4.357230
LeftLeg -6.461831 -0.000000 0.000000
LeftFoot -22.407899 25.247779 -14.897758
LeftToeBase 26.486857 -0.000000 -0.000000
RightUpLeg 5.139443 -8.507552 -0.971087
RightLeg -2.648753 -0.000000 0.000000
RightFoot -23.837207 -26.329653 17.199493
RightToeBase 23.758441 -0.000000 -0.000000
1418
root 19.222810 35.302114 -22.620287 -175.070882 -1.612110 -178.697423
Spine -15.808850 1.761782 -0.536817
Head 8.018321 -2.475803 0.847144
LeftShoulder -11.858769 -33.657534 23.350305
LeftArm 1.275299 -1.286210 -5.255913
LeftForeArm 12.921480 -0.000000 -2.744457
LeftHand -8.924250 0.000000 -2.768418
LeftHandThumb1 -26.253704 0.000000 33.147579
RightShoulder -15.152654 -3.012539 -11.462307
RightArm 1.918674 39.703477 7.626134
RightForeArm -36.763188 -0.000000 4.401209
RightHand -7.807476 -0.000000 5.172722
RightHandThumb1 -24.326973 -0.000000 -32.862282
LeftUpLeg 5.958232 8.105110 4.352172
LeftLeg -6.462724 -0.000000 0.000000
LeftFoot -22.418637 25.256248 -14.911726
LeftToeBase 26.429421 -0.000000 -0.000000
RightUpLeg 5.155322 -8.512862 -0.978898
RightLeg -2.644510 -0.000000 0.000000
RightFoot -23.837454 -26.346739 17.132558
RightToeBase 23.833806 -0.000000 -0.000000
1419
root 19.221211 35.301431 -22.620639 -175.081649 -1.601360 -178.704636
Spine -15.777255 1.761518 -0.548986
Head 7.994827 -2.484388 0.843754
LeftShoulder -11.878150 -33.657154 23.381295
LeftArm 1.261654 -1.275622 -5.297472
LeftForeArm 12.968180 -0.000000 -2.720657
LeftHand -8.857821 -0.000000 -2.926681
LeftHandThumb1 -26.253704 0.000000 33.147579
RightShoulder -15.179464 -3.058274 -11.435383
RightArm 1.979129 39.746631 7.698945
RightForeArm -36.848853 0.000000 4.433659
RightHand -7.875872 -0.000000 5.144688
RightHandThumb1 -24.326973 -0.000000 -32.862282
LeftUpLeg 5.976057 8.092434 4.343900
LeftLeg -6.470422 -0.000000 0.000000
LeftFoot -22.416396 25.279081 -14.907504
LeftToeBase 26.409484 -0.000000 -0.000000
RightUpLeg 5.169615 -8.517024 -0.995252
RightLeg -2.649713 -0.000000 0.000000
RightFoot -23.823834 -26.316590 17.136108
RightToeBase 23.816361 -0.000000 -0.000000
1420
root 19.219505 35.300655 -22.621210 -175.099909 -1.592960 -178.708096
Spine -15.745800 1.771198 -0.546243
Head 7.987068 -2.482564 0.835540
LeftShoulder -11.873038 -33.636657 23.366760
LeftArm 1.267278 -1.318809 -5.322991
LeftForeArm 13.038688 -0.000000 -2.717160
LeftHand -8.906561 -0.000000 -2.946477
LeftHandThumb1 -26.253704 0.000000 33.147579
RightShoulder -15.178116 -3.059997 -11.429282
RightArm 1.974454 39.747088 7.708049
RightForeArm -36.843502 -0.000000 4.452981
RightHand -7.919805 -0.000000 5.192464
RightHandThumb1 -24.326973 -0.000000 -32.862282
LeftUpLeg 5.998568 8.091974 4.339303
LeftLeg -6.472714 -0.000000 0.000000
LeftFoot -22.432106 25.281236 -14.916267
LeftToeBase 26.434531 -0.000000 -0.000000
RightUpLeg 5.194570 -8.496066 -1.003540
RightLeg -2.662846 -0.000000 0.000000
RightFoot -23.826514 -26.347169 17.091350
RightToeBase 23.847788 -0.000000 -0.000000
1421
root 19.217628 35.300416 -22.621777 -175.111114 -1.589513 -178.704061
Spine -15.725947 1.764016 -0.525131
Head 7.986434 -2.449175 0.846253
LeftShoulder -11.882874 -33.603832 23.343943
LeftArm 1.288721 -1.330663 -5.340745
LeftForeArm 13.037922 0.000000 -2.733915
LeftHand -8.923425 0.000000 -2.976904
LeftHandThumb1 -26.253704 0.000000 33.147579
RightShoulder -15.167845 -3.073952 -11.433330
RightArm 1.980780 39.774661 7.730618
RightForeArm -36.849312 -0.000000 4.467366
RightHand -7.926614 -0.000000 5.211701
RightHandThumb1 -24.326973 -0.000000 -32.862282
LeftUpLeg 6.012070 8.089636 4.341317
LeftLeg -6.473393 -0.000000 0.000000
LeftFoot -22.430359 25.290816 -14.907274
LeftToeBase 26.412398 -0.000000 -0.000000
RightUpLeg 5.207770 -8.503471 -1.006331
RightLeg -2.666296 -0.000000 0.000000
RightFoot -23.812247 -26.315306 17.128344
RightToeBase 23.729826 -0.000000 -0.000000
1422
root 19.215724 35.300074 -22.620895 -175.114779 -1.584278 -178.707855
Spine -15.707978 1.766099 -0.520835
Head 7.978609 -2.443266 0.836787
LeftShoulder -11.894291 -33.581346 23.338585
LeftArm 1.305158 -1.365620 -5.369661
LeftForeArm 13.057703 -0.000000 -2.739578
LeftHand -8.937477 -0.000000 -3.034782
LeftHandThumb1 -26.253704 0.000000 33.147579
RightShoulder -15.176902 -3.078331 -11.430821
RightArm 2.004341 39.798508 7.763398
RightForeArm -36.830204 -0.000000 4.486728
RightHand -7.968522 -0.000000 5.247829
RightHandThumb1 -24.326973 -0.000000 -32.862282
LeftUpLeg 6.012437 8.103566 4.336342
LeftLeg -6.465954 -0.000000 0.000000
LeftFoot -22.434249 25.269196 -14.902962
LeftToeBase 26.416511 -0.000000 -0.000000
RightUpLeg 5.208212 -8.488269 -1.012384
RightLeg -2.662689 -0.000000 0.000000
RightFoot -23.823836 -26.334188 17.126878
RightToeBase 23.778849 -0.000000 -0.000000
1423
root 19.213348 35.299723 -22.620889 -175.121371 -1.578344 -178.718477
Spine -15.684332 1.763868 -0.528694
Head 7.981438 -2.424008 0.807252
LeftShoulder -11.912312 -33.592968 23.342111
LeftArm 1.322860 -1.351403 -5.390086
LeftForeArm 13.027392 -0.000000 -2.752235
LeftHand -8.933185 -0.000000 -3.088754
LeftHandThumb1 -26.253704 0.000000 33.147579
RightShoulder -15.187796 -3.110540 -11.401451
RightArm 2.039702 39.831728 7.783087
RightForeArm -36.778102 -0.000000 4.483550
RightHand -7.966763 -0.000000 5.233465
RightHandThumb1 -24.326973 -0.000000 -32.862282
LeftUpLeg 6.022346 8.103555 4.322316
LeftLeg -6.468776 -0.000000 0.000000
LeftFoot -22.436924 25.275219 -14.902106
LeftToeBase 26.431073 -0.000000 -0.000000
RightUpLeg 5.217417 -8.503997 -1.029861
RightLeg -2.669128 -0.000000 0.000000
RightFoot -23.812951 -26.330428 17.096508
RightToeBase 23.805308 -0.000000 -0.000000
1424
root 19.211581 35.299178 -22.620663 -175.116442 -1.573165 -178.716571
Spine -15.684533 1.768163 -0.510756
Head 7.982187 -2.414128 0.795106
LeftShoulder -11.903991 -33.581328 23.313730
LeftArm 1.338600 -1.320258 -5.410253
LeftForeArm 12.899827 -0.000000 -2.775320
LeftHand -8.969742 -0.000000 -3.001718
LeftHandThumb1 -26.253704 0.000000 33.147579
RightShoulder -15.194259 -3.096076 -11.413769
RightArm 2.062173 39.811360 7.802020
RightForeArm -36.731291 -0.000000 4.474116
RightHand -7.960595 -0.000000 5.233049
RightHandThumb1 -24.326973 -0.000000 -32.862282
LeftUpLeg 6.017785 8.108710 4.320260
LeftLeg -6.468195 -0.000000 0.000000
LeftFoot -22.440119 25.277566 -14.889852
LeftToeBase 26.431452 -0.000000 -0.000000
RightUpLeg 5.208958 -8.508096 -1.031786
RightLeg -2.662376 -0.000000 0.000000
RightFoot -23.813585 -26.308059 17.097855
RightToeBase 23.771476 -0.000000 -0.000000
1425
root 19.209951 35.299143 -22.619847 -175.115992 -1.570674 -178.720815
Spine -15.668800 1.760032 -0.509046
Head 7.978842 -2.402569 0.768897
LeftShoulder -11.928297 -33.583815 23.307478
LeftArm 1.379702 -1.285571 -5.428347
LeftForeArm 12.815756 -0.000000 -2.805015
LeftHand -8.898607 -0.000000 -3.059138
LeftHandThumb1 -26.253704 0.000000 33.147579
RightShoulder -15.200694 -3.102343 -11.391825
RightArm 2.090716 39.860211 7.817797
RightForeArm -36.855826 -0.000000 4.460590
RightHand -7.916029 -0.000000 5.224985
RightHandThumb1 -24.326973 -0.000000 -32.862282
LeftUpLeg 6.012200 8.117039 4.313911
LeftLeg -6.460232 -0.000000 0.000000
LeftFoot -22.435141 25.274622 -14.877632
LeftToeBase 26.422489 -0.000000 -0.000000
RightUpLeg 5.206914 -8.512118 -1.038313
RightLeg -2.660677 -0.000000 0.000000
RightFoot -23.825129 -26.316281 17.078103
RightToeBase 23.892248 -0.000000 -0.000000
